<svg height='100px' width='100px'  fill="#000000" xmlns="http://www.w3.org/2000/svg" xmlns:xlink="http://www.w3.org/1999/xlink" version="1.1" x="0px" y="0px" viewBox="0 0 100 100" style="enable-background:new 0 0 100 100;" xml:space="preserve"><g><path d="M67.4,60.5c-2.2-0.8-6.1-2.6-8.3-6.1c-0.6-0.9-1-2-1.2-3c5.4-3.7,9.1-11,9.1-19.5c0-12.1-7.6-22-17-22s-17,9.9-17,22   c0,8.4,3.7,15.8,9.1,19.5c-0.2,1-0.6,2.1-1.2,3c-2.1,3.5-6.1,5.3-8.3,6.1c-5.9,0-10.7,3.8-10.7,8.5v21.2H78V68.9   C78,64.3,73.3,60.5,67.4,60.5z M49.9,37c-1.6,0.1-3,0.7-4.2,1.8c-2.8-0.2-5.5-0.5-7.8-0.9c-0.6-2.7-1.3-5.3-1.9-8L50,30.5l14.1-0.4   l-1.9,8l0,0c-2.2,0.3-4.7,0.6-7.4,0.7C53.5,37.6,51.7,36.9,49.9,37z"></path><g><rect x="59.7" y="37.6" transform="matrix(0.8416 0.5401 -0.5401 0.8416 41.9683 -24.0953)" width="4.8" height="43.7"></rect><path d="M68,55.1l-4.5-2.9c-1.4-0.9-1.8-2.8-0.9-4.2l0,0l9.6,6.2h0C71.3,55.6,69.4,56,68,55.1z"></path><path d="M76,42.5l-4.3-2.7c-0.3-0.2-0.4-0.6-0.2-0.9v0c0.2-0.3,0.6-0.4,0.9-0.2l4.3,2.7c0.3,0.2,0.4,0.6,0.2,0.9l0,0    C76.7,42.6,76.3,42.7,76,42.5z"></path></g><g><rect x="35.9" y="37.6" transform="matrix(-0.8416 0.5401 -0.5401 -0.8416 102.7755 88.8664)" width="4.8" height="43.7"></rect><path d="M32.4,55.1l4.5-2.9c1.4-0.9,1.8-2.8,0.9-4.2v0l-9.6,6.2l0,0C29.2,55.6,31,56,32.4,55.1z"></path><path d="M24.4,42.5l4.3-2.7c0.3-0.2,0.4-0.6,0.2-0.9l0,0c-0.2-0.3-0.6-0.4-0.9-0.2l-4.3,2.7c-0.3,0.2-0.4,0.6-0.2,0.9v0    C23.7,42.6,24.1,42.7,24.4,42.5z"></path></g></g></svg>